<?xml version="1.0" encoding="utf-8"?>
<!-- Generator: Adobe Illustrator 17.0.1, SVG Export Plug-In . SVG Version: 6.00 Build 0)  -->
<!DOCTYPE svg PUBLIC "-//W3C//DTD SVG 1.1//EN" "http://www.w3.org/Graphics/SVG/1.1/DTD/svg11.dtd">
<svg version="1.1" id="_x31_" xmlns="http://www.w3.org/2000/svg" xmlns:xlink="http://www.w3.org/1999/xlink" x="0px" y="0px"
	 width="35.34px" height="32.084px" viewBox="0 0 35.34 32.084" style="enable-background:new 0 0 35.34 32.084;"
	 xml:space="preserve">
<style type="text/css">
	.st0{fill-rule:evenodd;clip-rule:evenodd;fill:#04B6F5;}
</style>
<g>
	<path class="st0" d="M3.084,29h29.172V3.084H3.084V29L3.084,29z M33.798,32.084H1.542H0v-1.542v-29V0h1.542h32.256h1.542v1.542v29
		v1.542H33.798z"/>
	<path class="st0" d="M13.928,24.75c-4.893,0-8.19-3.577-8.19-8.721c0-5.092,3.295-8.695,8.213-8.695h2.15h3.07h4.58
		c3.447,0,5.718,2.763,5.718,6.002c0,3.081-2.037,5.141-4.152,5.48l4.282,5.934h-3.551c-1.942-2.918-3.585-5.33-5.43-8.285h2.74
		c1.723,0,2.977-1.459,2.977-3.156c0-1.671-1.254-3.286-2.977-3.286h-3.107h-1.082h-0.015h-2.738h-0.317h-2.16h-0.014
		c-3.482,0-5.366,2.663-5.366,6.005c0,3.316,1.977,6.032,5.389,6.032h2.15v-8.134h0.317h2.738h0.015h0.004l-0.002,4.322h-0.003
		v6.501h-0.015h-3.055H13.928z"/>
</g>
</svg>
