<svg xmlns="http://www.w3.org/2000/svg" xmlns:xlink="http://www.w3.org/1999/xlink" preserveAspectRatio="xMidYMid" width="24" height="24" viewBox="0 0 24 24">
  <defs>
    <style>

      .cls-2 {
        fill: #ffffff;
      }
    </style>
  </defs>
  <path d="M14.115,11.994 C14.115,11.994 23.550,2.550 23.550,2.550 C24.136,1.963 24.136,1.012 23.550,0.426 C22.964,-0.161 22.015,-0.161 21.428,0.426 C21.428,0.426 11.994,9.870 11.994,9.870 C11.994,9.870 2.558,0.426 2.558,0.426 C1.972,-0.161 1.023,-0.161 0.437,0.426 C-0.149,1.012 -0.149,1.963 0.437,2.550 C0.437,2.550 9.872,11.994 9.872,11.994 C9.872,11.994 0.437,21.438 0.437,21.438 C-0.149,22.024 -0.149,22.975 0.437,23.562 C0.730,23.855 1.114,24.001 1.498,24.001 C1.881,24.001 2.265,23.855 2.558,23.562 C2.558,23.562 11.994,14.118 11.994,14.118 C11.994,14.118 21.428,23.562 21.428,23.562 C21.722,23.855 22.106,24.001 22.489,24.001 C22.873,24.001 23.257,23.855 23.550,23.562 C24.136,22.975 24.136,22.024 23.550,21.438 C23.550,21.438 14.115,11.994 14.115,11.994 Z" id="path-1" class="cls-2" fill-rule="evenodd"/>
</svg>
