<svg xmlns="http://www.w3.org/2000/svg" xmlns:xlink="http://www.w3.org/1999/xlink" preserveAspectRatio="xMidYMid" width="34" height="76" viewBox="0 0 34 76">
  <defs>
    <style>

      .cls-2 {
        fill: #04b6f5;
      }
    </style>
  </defs>
  <path d="M17.000,48.999 C7.611,48.999 -0.000,41.458 -0.000,32.156 C-0.000,32.156 -0.000,16.843 -0.000,16.843 C-0.000,7.540 7.611,-0.001 17.000,-0.001 C26.389,-0.001 34.000,7.540 34.000,16.843 C34.000,16.843 34.000,32.156 34.000,32.156 C34.000,41.458 26.389,48.999 17.000,48.999 ZM30.909,16.843 C30.909,9.243 24.670,3.062 17.000,3.062 C9.330,3.062 3.091,9.243 3.091,16.843 C3.091,16.843 3.091,32.156 3.091,32.156 C3.091,39.755 9.330,45.937 17.000,45.937 C24.670,45.937 30.909,39.755 30.909,32.156 C30.909,32.156 30.909,16.843 30.909,16.843 ZM17.000,22.968 C14.439,22.968 12.364,20.912 12.364,18.374 C12.364,18.374 12.364,12.249 12.364,12.249 C12.364,9.712 14.439,7.656 17.000,7.656 C19.561,7.656 21.636,9.712 21.636,12.249 C21.636,12.249 21.636,18.374 21.636,18.374 C21.636,20.912 19.561,22.968 17.000,22.968 ZM18.545,12.249 C18.545,11.405 17.853,10.718 17.000,10.718 C16.147,10.718 15.454,11.405 15.454,12.249 C15.454,12.249 15.454,18.374 15.454,18.374 C15.454,19.219 16.147,19.906 17.000,19.906 C17.853,19.906 18.545,19.219 18.545,18.374 C18.545,18.374 18.545,12.249 18.545,12.249 ZM17.000,56.969 C19.209,56.969 21.000,58.766 21.000,60.984 C21.000,63.202 19.209,65.000 17.000,65.000 C14.791,65.000 13.000,63.202 13.000,60.984 C13.000,58.766 14.791,56.969 17.000,56.969 ZM17.000,71.937 C18.105,71.937 19.000,72.840 19.000,73.953 C19.000,75.066 18.105,75.969 17.000,75.969 C15.895,75.969 15.000,75.066 15.000,73.953 C15.000,72.840 15.895,71.937 17.000,71.937 Z" id="path-1" class="cls-2" fill-rule="evenodd"/>
</svg>
