<svg xmlns="http://www.w3.org/2000/svg" xmlns:xlink="http://www.w3.org/1999/xlink" preserveAspectRatio="xMidYMid" width="54" height="32" viewBox="0 0 54 32">
  <defs>
    <style>

      .cls-2 {
        fill: #0eb6f5;
      }
    </style>
  </defs>
  <path d="M53.077,18.348 C51.807,19.873 49.943,21.701 47.387,23.750 C42.289,27.835 37.273,30.403 32.313,31.474 C30.587,31.843 28.823,32.000 27.035,32.000 C25.187,32.000 23.393,31.843 21.668,31.474 C16.765,30.409 11.760,27.822 6.652,23.750 C4.252,21.835 2.338,20.054 0.904,18.348 C-0.302,16.913 -0.303,15.027 0.904,13.593 C1.427,12.971 2.013,12.354 2.693,11.684 C6.207,8.215 9.913,5.414 13.866,3.376 C16.746,1.891 19.607,0.897 22.400,0.381 C24.065,0.074 25.627,-0.000 27.035,-0.000 C28.383,-0.000 29.914,0.083 31.580,0.381 C34.343,0.876 37.201,1.869 40.114,3.376 C44.182,5.480 47.861,8.304 51.288,11.684 C51.879,12.268 52.496,12.907 53.077,13.593 C54.314,15.051 54.301,16.878 53.077,18.348 ZM50.614,15.706 C50.301,15.316 49.763,14.738 49.001,13.974 C45.686,10.657 42.249,8.145 38.677,6.341 C35.914,4.945 33.370,4.016 31.052,3.610 C29.675,3.370 28.354,3.259 27.035,3.259 C25.656,3.259 24.309,3.385 22.987,3.610 C20.701,4.001 18.163,4.932 15.362,6.341 C11.857,8.103 8.382,10.627 4.980,13.974 C4.834,14.150 4.562,14.436 4.188,14.825 C3.829,15.200 3.573,15.501 3.426,15.706 C3.221,15.912 3.221,16.088 3.426,16.235 C4.687,17.791 6.429,19.457 8.646,21.226 C13.350,24.976 17.938,27.321 22.400,28.273 C24.010,28.612 25.509,28.743 26.946,28.743 C26.946,28.743 27.035,28.743 27.035,28.743 C28.442,28.743 29.972,28.618 31.639,28.273 C36.160,27.328 40.706,24.925 45.334,21.226 C47.540,19.463 49.323,17.820 50.614,16.235 C50.760,16.088 50.771,15.904 50.614,15.706 ZM27.035,26.275 C24.190,26.275 21.719,25.285 19.703,23.280 C17.672,21.262 16.682,18.847 16.682,16.000 C16.682,13.152 17.679,10.715 19.703,8.690 C21.726,6.664 24.190,5.666 27.035,5.666 C29.879,5.666 32.276,6.671 34.278,8.690 C36.294,10.723 37.299,13.152 37.299,16.000 C37.299,18.847 36.302,21.255 34.278,23.280 C32.284,25.277 29.879,26.275 27.035,26.275 ZM31.990,11.009 C30.634,9.636 28.999,8.925 27.035,8.925 C25.069,8.925 23.398,9.629 22.019,11.009 C20.641,12.389 19.937,14.033 19.937,16.000 C19.937,17.908 20.641,19.581 22.019,20.961 C23.398,22.341 25.069,23.045 27.035,23.045 C28.970,23.045 30.612,22.370 31.990,20.991 C33.369,19.611 34.044,17.937 34.044,16.000 C34.044,14.033 33.362,12.396 31.990,11.009 Z" id="path-1" class="cls-2" fill-rule="evenodd"/>
</svg>
